<?xml version="1.0" encoding="UTF-8"?>
<svg width="98px" height="98px" viewBox="0 0 98 98" version="1.1" xmlns="http://www.w3.org/2000/svg" xmlns:xlink="http://www.w3.org/1999/xlink">
  <!-- Generator: Sketch 52.5 (67469) - http://www.bohemiancoding.com/sketch -->
  <desc>Created with Sketch.</desc>
  <g id="Page-1" stroke="none" stroke-width="1" fill="none" fill-rule="evenodd">
    <polygon id="Rectangle" fill="#FFFFFF" points="3.38060426 49.267 49.499 22.4482446 94.8778788 49.267 49.1292415 75.7799127"></polygon>
    <g id="noun_surface_150929" transform="translate(-1.000000, 20.000000)" fill="#000000" fill-rule="nonzero">
      <path d="M1.271,29 L50,57.134 L98.729,29 L50,0.866 L1.271,29 Z M66.413,13.806 C64.243,15.049 62.116,16.188 59.697,16.907 C59.509,16.963 59.338,17.004 59.16,17.05 C58.193,16.58 57.226,16.119 56.271,15.669 C55.043,15.09 53.816,14.511 52.599,13.909 C52.001,13.613 51.41,13.301 50.814,12.992 C53.258,11.69 55.662,10.319 58.019,8.959 L66.413,13.806 Z M75.563,19.089 C73.313,20.376 70.891,21.66 68.348,22.313 C67.067,21.46 65.764,20.623 64.438,19.839 C63.046,19.015 61.61,18.261 60.167,17.543 C62.695,16.754 64.975,15.507 67.167,14.243 L75.563,19.089 Z M84.707,24.368 C82.334,25.735 79.917,27.107 77.461,28.403 C76.796,27.984 76.129,27.567 75.475,27.138 C74.17,26.283 72.882,25.398 71.596,24.515 C70.788,23.961 69.969,23.402 69.141,22.846 C71.729,22.079 74.162,20.759 76.313,19.522 L84.707,24.368 Z M92.729,29 L85.46,33.197 C83.125,31.844 80.65,30.4 78.189,28.868 C80.654,27.556 83.078,26.172 85.456,24.801 L92.729,29 Z M14.543,24.801 C16.92,26.172 19.343,27.557 21.81,28.868 C19.349,30.398 16.874,31.846 14.539,33.197 L7.271,29 L14.543,24.801 Z M23.686,19.522 C25.836,20.758 28.267,22.082 30.853,22.849 C30.029,23.404 29.211,23.961 28.407,24.513 C27.118,25.397 25.83,26.283 24.524,27.138 C23.871,27.567 23.204,27.984 22.54,28.403 C20.084,27.107 17.667,25.734 15.294,24.367 L23.686,19.522 Z M41.981,8.96 C44.338,10.319 46.741,11.691 49.185,12.993 C48.59,13.301 47.997,13.614 47.399,13.91 C46.181,14.513 44.953,15.092 43.725,15.671 C42.772,16.121 41.807,16.581 40.842,17.049 C40.665,17.003 40.493,16.962 40.306,16.906 C37.887,16.187 35.76,15.049 33.589,13.802 L41.981,8.96 Z M64.057,20.484 C65.161,21.137 66.249,21.831 67.327,22.538 C66.44,22.701 65.541,22.783 64.63,22.748 C63.549,22.713 62.601,22.631 61.683,22.551 C60.863,22.48 60.095,22.416 59.351,22.399 C58.951,21.944 58.541,21.495 58.121,21.058 C56.933,19.831 55.791,18.84 54.49,18.154 C54.992,18.197 55.492,18.23 56.009,18.23 C56.927,18.23 57.916,18.126 59.08,17.845 C60.762,18.667 62.441,19.528 64.057,20.484 Z M40.925,17.844 C42.088,18.125 43.077,18.229 43.994,18.229 C44.525,18.229 45.037,18.194 45.552,18.149 C44.228,18.839 43.073,19.829 41.914,21.025 C41.48,21.472 41.061,21.933 40.649,22.4 C39.907,22.417 39.14,22.48 38.321,22.551 C37.403,22.631 36.453,22.714 35.371,22.748 C34.46,22.78 33.562,22.697 32.679,22.536 C33.754,21.83 34.841,21.137 35.944,20.485 C37.56,19.528 39.241,18.667 40.925,17.844 Z M50.024,17.834 C53.331,17.867 55.367,19.291 57.579,21.579 C57.841,21.85 58.094,22.132 58.348,22.412 C56.184,22.527 54.137,23.268 51.512,25.852 C50.989,26.366 50.49,26.901 50.001,27.445 C49.512,26.901 49.013,26.366 48.49,25.852 C45.865,23.268 43.817,22.528 41.652,22.414 C41.917,22.123 42.18,21.83 42.453,21.548 C44.66,19.271 46.697,17.856 50.024,17.834 Z M35.396,23.498 C36.498,23.462 37.501,23.375 38.387,23.299 C38.951,23.25 39.478,23.206 39.984,23.176 C39.137,24.175 38.324,25.192 37.53,26.194 C37.059,26.788 36.589,27.382 36.111,27.971 C34.481,29.979 33.057,31.526 31.63,32.846 C30.695,32.393 29.762,31.95 28.839,31.513 C27.61,30.934 26.381,30.354 25.163,29.751 C24.543,29.444 23.928,29.12 23.312,28.8 C23.854,28.456 24.4,28.116 24.935,27.766 C26.246,26.906 27.539,26.019 28.831,25.133 C29.811,24.461 30.808,23.781 31.815,23.108 C32.985,23.383 34.182,23.535 35.396,23.498 Z M36.693,28.443 C37.173,27.852 37.645,27.255 38.118,26.659 C39.046,25.488 40,24.293 41.003,23.14 C43.322,23.133 45.25,23.715 47.963,26.386 C48.495,26.909 49.004,27.458 49.502,28.015 C48.485,29.185 47.521,30.39 46.584,31.578 C45.303,33.201 43.978,34.878 42.533,36.405 C41.974,36.995 41.391,37.547 40.8,38.081 C39.554,37.254 38.288,36.441 37.001,35.68 C35.485,34.784 33.917,33.971 32.344,33.198 C33.734,31.889 35.128,30.371 36.693,28.443 Z M43.078,36.919 C44.546,35.368 45.882,33.677 47.173,32.042 C48.083,30.891 49.018,29.72 50,28.585 C50.982,29.72 51.917,30.891 52.828,32.043 C54.12,33.678 55.455,35.37 56.923,36.92 C57.452,37.479 58.001,38.003 58.559,38.511 C57.649,39.122 56.746,39.739 55.86,40.344 C54.567,41.231 53.274,42.118 51.962,42.979 C51.316,43.403 50.658,43.815 50.002,44.229 C49.346,43.815 48.687,43.403 48.041,42.979 C46.729,42.12 45.436,41.231 44.143,40.344 C43.256,39.738 42.355,39.122 41.445,38.511 C42,38.003 42.549,37.479 43.078,36.919 Z M57.468,36.405 C56.024,34.879 54.697,33.201 53.417,31.578 C52.48,30.39 51.516,29.184 50.499,28.014 C50.997,27.457 51.506,26.909 52.038,26.386 C54.752,23.716 56.68,23.132 58.999,23.139 C59.999,24.289 60.952,25.482 61.878,26.651 C62.357,27.257 62.839,27.863 63.327,28.464 C64.884,30.382 66.271,31.895 67.657,33.193 C66.085,33.966 64.517,34.781 63.001,35.676 C61.713,36.439 60.447,37.25 59.202,38.077 C58.609,37.546 58.025,36.995 57.468,36.405 Z M63.908,27.992 C63.422,27.393 62.943,26.789 62.464,26.185 C61.672,25.186 60.86,24.171 60.016,23.175 C60.522,23.205 61.05,23.249 61.616,23.299 C62.501,23.376 63.504,23.463 64.604,23.498 C65.815,23.533 67.012,23.379 68.18,23.103 C69.19,23.777 70.19,24.459 71.171,25.133 C72.463,26.019 73.754,26.905 75.065,27.765 C75.6,28.116 76.147,28.456 76.688,28.8 C76.073,29.12 75.458,29.444 74.836,29.751 C73.615,30.355 72.384,30.936 71.152,31.518 C70.234,31.951 69.308,32.393 68.38,32.841 C66.945,31.518 65.52,29.975 63.908,27.992 Z M53.525,17.308 C52.636,17.216 51.629,17.111 50.436,17.086 C50.433,17.086 50.431,17.086 50.428,17.086 C50.397,17.086 50.37,17.096 50.341,17.103 C50.236,17.1 50.14,17.084 50.031,17.083 L50.03,17.083 C50.029,17.083 50.029,17.083 50.028,17.083 C50.028,17.083 50.027,17.083 50.026,17.083 C49.915,17.083 49.816,17.099 49.707,17.103 C49.664,17.09 49.619,17.082 49.565,17.086 C48.372,17.11 47.365,17.215 46.476,17.307 C44.959,17.465 43.682,17.595 42.017,17.31 C42.696,16.985 43.373,16.665 44.045,16.349 C45.277,15.767 46.51,15.186 47.733,14.581 C48.493,14.205 49.247,13.811 50.001,13.416 C50.754,13.811 51.508,14.204 52.268,14.58 C53.491,15.184 54.723,15.766 55.955,16.346 C56.628,16.663 57.308,16.983 57.987,17.309 C56.318,17.595 55.042,17.465 53.525,17.308 Z M32.833,14.242 C35.027,15.506 37.307,16.754 39.834,17.542 C38.391,18.26 36.954,19.015 35.562,19.838 C34.238,20.622 32.937,21.458 31.657,22.31 C29.109,21.658 26.689,20.376 24.438,19.089 L32.833,14.242 Z M22.58,29.267 C23.328,29.659 24.077,30.049 24.831,30.423 C26.054,31.027 27.287,31.61 28.52,32.192 C29.351,32.585 30.19,32.983 31.03,33.387 C28.891,35.27 26.673,36.717 23.681,38.475 L15.289,33.63 C17.64,32.268 20.119,30.809 22.58,29.267 Z M31.752,33.74 C33.398,34.546 35.04,35.39 36.618,36.324 C37.835,37.044 39.036,37.81 40.219,38.594 C37.825,40.658 35.246,42.323 32.825,43.755 L24.425,38.905 C27.337,37.18 29.571,35.693 31.752,33.74 Z M40.863,39.025 C41.825,39.671 42.779,40.32 43.716,40.963 C45.013,41.854 46.311,42.742 47.627,43.608 C48.179,43.969 48.742,44.321 49.302,44.674 C46.819,46.22 44.327,47.678 41.977,49.038 L33.568,44.184 C35.968,42.75 38.502,41.086 40.863,39.025 Z M50,45.118 C52.46,46.659 54.932,48.114 57.273,49.471 L50,53.67 L42.727,49.471 C45.069,48.113 47.541,46.658 50,45.118 Z M50.697,44.674 C51.257,44.319 51.82,43.969 52.371,43.608 C53.687,42.746 54.984,41.854 56.282,40.964 C57.22,40.321 58.174,39.671 59.136,39.026 C61.498,41.089 64.032,42.752 66.431,44.184 L58.021,49.038 C55.674,47.679 53.182,46.221 50.697,44.674 Z M59.779,38.594 C60.964,37.811 62.164,37.045 63.381,36.324 C64.96,35.39 66.602,34.546 68.247,33.741 C70.428,35.693 72.661,37.179 75.574,38.905 L67.175,43.754 C64.754,42.322 62.175,40.659 59.779,38.594 Z M68.98,33.382 C69.814,32.981 70.648,32.583 71.472,32.194 C72.707,31.613 73.943,31.028 75.168,30.423 C75.922,30.049 76.671,29.659 77.419,29.267 C79.88,30.809 82.358,32.267 84.71,33.629 L76.317,38.475 C73.378,36.744 71.143,35.28 68.98,33.382 Z M50,12.575 C47.537,11.275 45.112,9.898 42.731,8.527 L50,4.33 L57.27,8.527 C54.889,9.898 52.464,11.275 50,12.575 Z" id="Shape"></path>
    </g>
  </g>
</svg>
